# xmcd CD database file
#
# Track frame offsets:
#	150
#	39075
#	76500
#	115500
#	150975
#	177000
#	193500
#
# Disc length: 3374 seconds
#
# Revision: 0
# Processed by: cddbd v1.5.1PL2 Copyright (c) Steve Scherf et al.
# Submitted via: CDex 1.51
#
DISCID=370d2c07
DTITLE=Rudi Mahall - Solo
DYEAR=2005
DGENRE=Jazz
TTITLE0=I
TTITLE1=II
TTITLE2=III
TTITLE3=IV
TTITLE4=V
TTITLE5=VI
TTITLE6=VII
EXTD=YEAR: 2005
EXTT0=
EXTT1=
EXTT2=
EXTT3=
EXTT4=
EXTT5=
EXTT6=
PLAYORDER=
